<svg xmlns="http://www.w3.org/2000/svg" viewBox="0 0 45 23" width="45" height="23">
<defs>
	<!-- Color Variables -->
	<style>
		:root {
			--accent-green-1: #ffffffff;
		}
	</style>
</defs>
<g transform="matrix(1,0,0,1,-195.088354177,203.701784663)">
	<g>
		<path d="M197.48444,-186.03455C197.688639,-185.551402 198.178608,-185.180272 198.871921,-185.124035 C200.91259,-185.434695 208.870937,-186.690288 208.870937,-186.690288 C208.870937,-186.690288 210.540298,-187.501539 210.540298,-187.501539 C210.540298,-187.501539 215.088402,-188.113204 215.088402,-188.113204 C215.088402,-188.113204 212.358726,-181.031579 212.358726,-181.031579 C212.358726,-181.031579 217.680665,-180.530474 217.680665,-180.530474 C217.680665,-180.530474 218.628076,-180.463266 219.454229,-180.863017 C220.280381,-181.262768 221.165263,-181.638826 222.231267,-182.470309 C223.29727,-183.301791 232.580812,-192.733632 232.580812,-192.733632 C232.580812,-192.733632 215.716637,-198.873812 215.716637,-198.873812 C215.716637,-198.873812 214.842514,-199.236253 213.883111,-199.150973 C212.923708,-199.065692 209.555137,-197.701208 209.555137,-197.701208 C209.555137,-197.701208 214.700644,-190.932118 214.700644,-190.932118 C214.700644,-190.932118 210.12083,-189.96422 210.12083,-189.96422 C210.12083,-189.96422 208.274618,-190.028748 208.274618,-190.028748 C208.274618,-190.028748 200.061581,-188.473574 198.53244,-188.1653 C197.84003,-187.800166 197.483042,-187.291272 197.398448,-186.793741 C197.021057,-186.722178 195.889376,-186.517143 195.889376,-186.517143 C195.889376,-186.517143 195.354922,-186.279102 195.16409,-186.14573 C195.042089,-186.060464 195.086546,-185.92111 195.16409,-185.91121 C195.346013,-185.887983 195.99086,-185.772926 195.99086,-185.772926 C195.99086,-185.772926 197.48444,-186.03455 197.48444,-186.03455 L 197.48444,-186.03455 ZM222.231267,-196.824545C222.231267,-196.824545 232.878252,-193.039317 232.878252,-193.039317 C232.878252,-193.039317 236.114364,-200.39649 236.524775,-201.979505 C236.935186,-203.56252 234.614019,-203.701785 234.614019,-203.701785 C234.614019,-203.701785 227.474655,-201.40557 227.474655,-201.40557 C227.474655,-201.40557 222.231267,-196.824545 222.231267,-196.824545 L 222.231267,-196.824545 ZM232.967571,-192.537754C232.967571,-192.537754 226.151812,-185.575419 226.151812,-185.575419 C226.151812,-185.575419 231.725344,-183.699252 231.725344,-183.699252 C231.725344,-183.699252 237.388675,-183.816513 239.64042,-184.080349 C241.892165,-184.344185 240.607818,-185.91121 240.607818,-185.91121 C240.607818,-185.91121 232.967571,-192.537754 232.967571,-192.537754 L 232.967571,-192.537754 Z" fill="var(--accent-green-1)"/>
	</g>
	<g>
		<path d="M3.446586,-157.055232C3.446586,-157.055232 3.446586,-172.973055 3.446586,-172.973055 C3.446586,-172.973055 9.336181,-172.973055 9.336181,-172.973055 Q11.644265,-172.973055 13.429335,-172.029355 Q15.214405,-171.085656 16.232009,-169.306271 Q17.249612,-167.526886 17.249612,-165.014144 Q17.249612,-162.501402 16.232009,-160.722017 Q15.214405,-158.942631 13.429335,-157.998932 Q11.644265,-157.055232 9.336181,-157.055232 Q3.446586,-157.055232 3.446586,-157.055232 C3.446586,-157.055232 3.446586,-157.055232 3.446586,-157.055232 ZM5.606862,-159.010851C5.606862,-159.010851 9.336181,-159.010851 9.336181,-159.010851 Q11.15536,-159.010851 12.388991,-159.766947 Q13.622623,-160.523044 14.253651,-161.876059 Q14.884679,-163.229074 14.884679,-165.014144 Q14.884679,-166.799214 14.253651,-168.152229 Q13.622623,-169.505243 12.388991,-170.26134 Q11.15536,-171.017437 9.336181,-171.017437 Q5.606862,-171.017437 5.606862,-171.017437 C5.606862,-171.017437 5.606862,-159.010851 5.606862,-159.010851 C5.606862,-159.010851 5.606862,-159.010851 5.606862,-159.010851 ZM21.95674,-156.827835Q20.922081,-156.827835 20.14893,-157.24852 Q19.375778,-157.669206 18.949408,-158.396877 Q18.523038,-159.124549 18.523038,-160.056879 Q18.523038,-161.000578 18.938038,-161.677086 Q19.353039,-162.353593 20.052286,-162.802703 Q20.751533,-163.251813 21.615643,-163.519005 Q22.479754,-163.786197 23.406398,-163.905581 Q24.333043,-164.024965 25.185784,-164.036335 Q25.185784,-165.628117 24.560441,-166.117021 Q23.935097,-166.605926 22.752631,-166.605926 Q22.127288,-166.605926 21.416671,-166.412638 Q20.706054,-166.21935 19.819203,-165.605377 Q19.523587,-167.265378 19.523587,-167.265378 Q20.194409,-167.777023 21.194958,-168.101064 Q22.195507,-168.425105 23.298385,-168.425105 Q24.708249,-168.425105 25.572359,-167.930516 Q26.43647,-167.435927 26.834415,-166.26483 Q27.232361,-165.093733 27.232361,-163.081265 Q27.232361,-160.807291 27.232361,-160.807291 Q27.232361,-160.011399 27.306265,-159.49407 Q27.380169,-158.976741 27.647361,-158.720919 Q27.914553,-158.465097 28.505786,-158.465097 Q28.710444,-158.465097 28.710444,-158.465097 C28.710444,-158.465097 28.392088,-156.827835 28.392088,-156.827835 C28.392088,-156.827835 28.232909,-156.827835 28.232909,-156.827835 Q27.243731,-156.827835 26.703662,-157.021123 Q26.163593,-157.214411 25.879346,-157.578247 Q25.595099,-157.942083 25.367701,-158.465097 Q24.742358,-157.737425 23.889618,-157.28263 Q23.036878,-156.827835 21.95674,-156.827835 Q21.95674,-156.827835 21.95674,-156.827835 ZM22.343315,-158.465097Q23.161946,-158.465097 23.929413,-158.874412 Q24.696879,-159.283728 25.185784,-159.96592 Q25.185784,-162.62647 25.185784,-162.62647 Q23.559892,-162.569621 22.553658,-162.308114 Q21.547424,-162.046607 21.081259,-161.523593 Q20.615095,-161.000578 20.615095,-160.170578 Q20.615095,-159.272358 21.098314,-158.868727 Q21.581534,-158.465097 22.343315,-158.465097 Q22.343315,-158.465097 22.343315,-158.465097 ZM30.279487,-157.055232C30.279487,-157.055232 30.279487,-168.197708 30.279487,-168.197708 C30.279487,-168.197708 31.962228,-168.197708 31.962228,-168.197708 C31.962228,-168.197708 32.212365,-166.355789 32.212365,-166.355789 Q33.065106,-167.413187 33.843942,-167.919146 Q34.622778,-168.425105 35.509628,-168.425105 Q35.793875,-168.425105 36.032642,-168.356886 Q35.827985,-166.105651 35.827985,-166.105651 Q35.680176,-166.139761 35.515313,-166.156816 Q35.35045,-166.173871 35.145792,-166.173871 Q34.258942,-166.173871 33.514215,-165.78161 Q32.769489,-165.389349 32.462502,-164.923185 Q32.462502,-157.055232 32.462502,-157.055232 C32.462502,-157.055232 30.279487,-157.055232 30.279487,-157.055232 C30.279487,-157.055232 30.279487,-157.055232 30.279487,-157.055232 ZM41.308263,-156.827835Q40.250865,-156.827835 39.614152,-157.214411 Q38.977439,-157.600986 38.687508,-158.209275 Q38.397576,-158.817563 38.397576,-159.488385 Q38.397576,-166.605926 38.397576,-166.605926 C38.397576,-166.605926 36.487437,-166.605926 36.487437,-166.605926 C36.487437,-166.605926 36.669355,-168.197708 36.669355,-168.197708 C36.669355,-168.197708 38.397576,-168.197708 38.397576,-168.197708 C38.397576,-168.197708 38.397576,-170.949217 38.397576,-170.949217 C38.397576,-170.949217 40.444153,-171.153875 40.444153,-171.153875 C40.444153,-171.153875 40.444153,-168.197708 40.444153,-168.197708 C40.444153,-168.197708 43.37758,-168.197708 43.37758,-168.197708 C43.37758,-168.197708 43.37758,-166.605926 43.37758,-166.605926 C43.37758,-166.605926 40.444153,-166.605926 40.444153,-166.605926 C40.444153,-166.605926 40.444153,-160.739071 40.444153,-160.739071 Q40.444153,-159.670303 40.569222,-159.192769 Q40.69429,-158.715234 41.18888,-158.590165 Q41.683469,-158.465097 42.786347,-158.465097 Q43.309361,-158.465097 43.309361,-158.465097 C43.309361,-158.465097 43.150183,-156.827835 43.150183,-156.827835 C43.150183,-156.827835 41.308263,-156.827835 41.308263,-156.827835 C41.308263,-156.827835 41.308263,-156.827835 41.308263,-156.827835 ZM47.993749,-156.827835Q46.913611,-156.827835 46.282583,-157.220096 Q45.651555,-157.612356 45.378678,-158.226329 Q45.105801,-158.840303 45.105801,-159.511125 Q45.105801,-174.110042 45.105801,-174.110042 C45.105801,-174.110042 47.152378,-174.110042 47.152378,-174.110042 C47.152378,-174.110042 47.152378,-160.693592 47.152378,-160.693592 Q47.152378,-159.738523 47.277447,-159.260988 Q47.402515,-158.783453 47.783406,-158.624275 Q48.164297,-158.465097 48.948818,-158.465097 Q48.653201,-156.827835 48.653201,-156.827835 C48.653201,-156.827835 47.993749,-156.827835 47.993749,-156.827835 C47.993749,-156.827835 47.993749,-156.827835 47.993749,-156.827835 ZM55.725262,-156.827835Q53.758274,-156.827835 52.416629,-157.635096 Q51.074984,-158.442357 50.387107,-159.778317 Q49.69923,-161.114277 49.69923,-162.717429 Q49.69923,-164.275102 50.341628,-165.571267 Q50.984025,-166.867433 52.206287,-167.646269 Q53.428548,-168.425105 55.156769,-168.425105 Q56.543893,-168.425105 57.629716,-167.873667 Q58.715539,-167.322228 59.335197,-166.270515 Q59.954855,-165.218801 59.954855,-163.717978 Q59.954855,-163.479211 59.9378,-163.200649 Q59.920746,-162.922087 59.863896,-162.62647 Q51.791286,-162.62647 51.791286,-162.62647 Q51.939095,-161.080168 52.530328,-160.216057 Q53.121561,-159.351947 54.019781,-158.999481 Q54.918001,-158.647015 55.9754,-158.647015 Q56.748551,-158.647015 57.589922,-158.806193 Q58.431292,-158.965371 59.181704,-159.306467 Q59.454581,-157.691945 59.454581,-157.691945 Q58.806498,-157.407699 57.874168,-157.117767 Q56.941839,-156.827835 55.725262,-156.827835 Q55.725262,-156.827835 55.725262,-156.827835 ZM51.973204,-164.036335C51.973204,-164.036335 57.840059,-164.036335 57.840059,-164.036335 Q57.840059,-164.820856 57.544442,-165.400719 Q57.248825,-165.980583 56.646222,-166.293254 Q56.043619,-166.605926 55.111289,-166.605926 Q53.746905,-166.605926 53.013548,-165.929418 Q52.280191,-165.252911 51.973204,-164.036335 Q51.973204,-164.036335 51.973204,-164.036335 ZM62.024172,-157.055232C62.024172,-157.055232 62.024172,-168.197708 62.024172,-168.197708 C62.024172,-168.197708 63.706913,-168.197708 63.706913,-168.197708 C63.706913,-168.197708 63.95705,-166.355789 63.95705,-166.355789 Q64.809791,-167.413187 65.588627,-167.919146 Q66.367464,-168.425105 67.254314,-168.425105 Q67.53856,-168.425105 67.777328,-168.356886 Q67.57267,-166.105651 67.57267,-166.105651 Q67.424862,-166.139761 67.259999,-166.156816 Q67.095135,-166.173871 66.890478,-166.173871 Q66.003628,-166.173871 65.258901,-165.78161 Q64.514174,-165.389349 64.207188,-164.923185 Q64.207188,-157.055232 64.207188,-157.055232 C64.207188,-157.055232 62.024172,-157.055232 62.024172,-157.055232 C62.024172,-157.055232 62.024172,-157.055232 62.024172,-157.055232 Z" fill="var(--accent-green-1)"/>
	</g>
</g>
</svg>